<svg width="32" height="44" viewBox="0 0 32 44" fill="none" xmlns="http://www.w3.org/2000/svg">
<path fill-rule="evenodd" clip-rule="evenodd" d="M3.75037 6.28557C3.75037 4.9443 4.83767 3.85699 6.17894 3.85699H25.8218C27.1631 3.85699 28.2504 4.9443 28.2504 6.28557V37.7141C28.2504 39.0554 27.1631 40.1427 25.8218 40.1427H6.17894C4.83767 40.1427 3.75037 39.0554 3.75037 37.7141V6.28557ZM6.17894 0.856995C3.18082 0.856995 0.750366 3.28745 0.750366 6.28557V37.7141C0.750366 40.7123 3.18082 43.1427 6.17894 43.1427H25.8218C28.8199 43.1427 31.2504 40.7123 31.2504 37.7141V6.28557C31.2504 3.28745 28.8199 0.856995 25.8218 0.856995H6.17894ZM16 31.2857C14.6193 31.2857 13.5 32.405 13.5 33.7857C13.5 35.1665 14.6193 36.2857 16 36.2857H16.0222C17.4029 36.2857 18.5222 35.1665 18.5222 33.7857C18.5222 32.405 17.4029 31.2857 16.0222 31.2857H16Z" fill="#B9C5E1"/>
</svg>
