<svg width="74" height="30" viewBox="0 0 74 30" fill="none" xmlns="http://www.w3.org/2000/svg">
<g clip-path="url(#clip0_1_6873)">
<g clip-path="url(#clip1_1_6873)">
<g clip-path="url(#clip2_1_6873)">
<path d="M49.3202 13.8897C49.3222 16.5527 47.4401 18.4104 44.7403 18.4063C42.1006 18.4023 40.2466 16.5588 40.2366 13.9261C40.2266 11.2631 42.1166 9.33055 44.7523 9.30829C47.3439 9.28603 49.3161 11.2651 49.3202 13.8897ZM47.6906 13.8694C47.6806 12.1899 46.444 10.9454 44.7764 10.9352C43.0747 10.9251 41.8441 12.2081 41.8681 13.9646C41.8922 15.6583 43.1288 16.8623 44.8184 16.836C46.4981 16.8077 47.7006 15.5652 47.6906 13.8694Z" fill="#B9C5E1"/>
<path d="M9.42237 13.8595C9.42237 12.781 9.4364 11.7044 9.41636 10.6259C9.40434 9.94796 9.70299 9.62014 10.3664 9.62418C11.5009 9.63228 12.6373 9.59788 13.7698 9.66668C14.9804 9.73953 15.8341 10.4903 16.1608 11.6296C16.4815 12.7466 16.1588 13.8939 15.1968 14.588C14.7378 14.9199 14.7198 15.1142 15.0765 15.4966C15.4413 15.8872 15.754 16.3263 16.0987 16.7371C16.4915 17.2065 16.676 17.7245 16.1007 18.1273C15.5615 18.5037 15.1006 18.2264 14.7538 17.7104C14.2868 17.0143 13.8038 16.3283 13.3188 15.6443C13.0542 15.272 11.585 14.9887 11.2203 15.2214C11.0077 15.357 11.0659 15.5735 11.0619 15.7658C11.0539 16.304 11.0559 16.8443 11.0559 17.3826C11.0559 17.9654 10.7593 18.2608 10.192 18.2487C9.65483 18.2386 9.42438 17.9108 9.42237 17.3947C9.42237 16.217 9.42438 15.0373 9.42237 13.8595ZM12.2885 13.7361C12.8437 13.7361 13.2486 13.7745 13.6415 13.726C14.1465 13.6653 14.4973 13.3516 14.6235 12.8538C14.7498 12.3479 14.7218 11.8501 14.3109 11.4555C14.0463 11.2026 11.4989 10.9598 11.2062 11.1621C11.1541 11.1985 11.0799 11.2592 11.0799 11.3098C11.0799 12.0768 10.9537 12.8862 11.1561 13.5965C11.2663 13.981 12.0019 13.6713 12.2885 13.7361Z" fill="#B9C5E1"/>
<path d="M66.038 17.4045C66.01 17.8073 65.8276 18.0966 65.4267 18.2201C65.0178 18.3456 64.627 18.2383 64.5168 17.8356C64.2121 16.7125 64.4274 16.6842 63.5114 16.755C62.9162 16.8015 60.768 16.755 59.7899 16.755C58.926 16.6761 59.1553 16.7773 58.8486 17.7789C58.6923 18.2929 58.1711 18.4224 57.6821 18.1918C57.195 17.9631 57.1429 17.4794 57.3474 17.0666C58.5239 14.697 59.7085 12.3314 60.9531 9.99826C61.3099 9.32845 62.0415 9.34262 62.3882 10.0124C63.6068 12.3598 64.7613 14.7395 65.9398 17.1071C65.9879 17.2002 66.006 17.3014 66.038 17.4045ZM61.6726 12.034C61.4241 12.5277 61.0994 13.1854 61.0994 13.1854C61.0994 13.1854 60.0852 14.4805 60.438 14.9459C60.7968 15.4194 62.4322 15.1037 62.4322 15.1037C62.4322 15.1037 63.0035 14.9196 62.7991 14.4947C62.4363 13.7439 61.6726 12.034 61.6726 12.034Z" fill="#B9C5E1"/>
<path d="M50.6991 13.8593C50.6991 12.8151 50.7091 11.771 50.695 10.7288C50.685 9.90322 51.0137 9.47017 51.8876 9.50255C52.7876 9.53695 53.6915 9.48231 54.5894 9.52076C56.2791 9.59361 57.4255 10.7956 57.4916 12.5136C57.5578 14.2276 56.5015 15.5187 54.8379 15.7433C54.6075 15.7736 54.3709 15.7635 54.1385 15.7736C53.5772 15.7979 52.8957 15.638 52.4889 15.9031C52.072 16.1743 52.3827 16.9028 52.3306 17.4289C52.2804 17.9429 52.068 18.2646 51.5228 18.2363C51.0077 18.21 50.7171 17.9004 50.7091 17.3945C50.689 16.2168 50.7031 15.037 50.7031 13.8593C50.7011 13.8593 50.6991 13.8593 50.6991 13.8593ZM52.3306 12.6816C52.3506 14.3875 52.1421 14.1629 53.483 14.177C55.1566 14.1952 55.9002 13.7096 55.8962 12.6472C55.8922 11.5828 55.1726 11.085 53.5993 11.1012C52.096 11.1153 52.3586 10.8806 52.3306 12.6816Z" fill="#B9C5E1"/>
<path d="M25.2282 13.8208C25.2262 12.7463 25.2342 11.6718 25.2242 10.5952C25.2182 9.8445 25.5509 9.48228 26.3125 9.50251C27.2105 9.52477 28.1104 9.48632 29.0083 9.51465C30.7802 9.57131 31.9687 10.8178 32.0008 12.6188C32.0308 14.3348 30.8683 15.6117 29.1426 15.7574C29.0424 15.7655 28.9422 15.7675 28.844 15.7695C28.2447 15.7736 27.5332 15.5753 27.0762 15.8343C26.535 16.1419 26.95 16.9291 26.8537 17.4977C26.7756 17.955 26.5611 18.2525 26.0781 18.2424C25.5148 18.2302 25.2302 17.9125 25.2302 17.3459C25.2262 16.1722 25.2282 14.9965 25.2282 13.8208ZM26.8577 12.6472C26.982 13.2765 26.3507 14.3308 27.9 14.2134C29.6678 14.0778 30.4415 13.7116 30.4194 12.6269C30.3973 11.5645 29.6818 11.0951 28.0743 11.0951C26.8577 11.0951 26.8577 11.0951 26.8577 12.6472Z" fill="#B9C5E1"/>
<path d="M0.609379 13.5297C0.673516 12.1334 1.24274 10.636 2.91634 9.84677C4.47168 9.11424 6.015 9.17494 7.4561 10.2171C7.92911 10.5591 8.30592 10.9901 7.9211 11.5628C7.52425 12.1537 7.03319 11.927 6.54414 11.5648C5.39367 10.7108 3.8283 10.8302 2.90432 11.8036C1.9703 12.787 1.89414 14.6973 2.74597 15.8224C3.55571 16.8949 5.12108 17.1681 6.35173 16.4335C6.94099 16.0814 7.60842 15.4177 8.09347 16.391C8.53241 17.2713 7.67858 17.6416 7.07929 17.9431C3.95457 19.5053 0.60537 17.3968 0.609379 13.5297Z" fill="#B9C5E1"/>
<path d="M20.5361 13.2238C21.2316 12.1938 21.899 11.2386 22.5324 10.2592C22.8892 9.70678 23.3402 9.37694 23.9374 9.77154C24.5728 10.1924 24.2161 10.6963 23.8954 11.1536C23.5686 11.6211 23.276 12.1148 22.9212 12.558C21.8049 13.9482 20.963 15.4173 21.2937 17.3175C21.3859 17.8537 21.1274 18.2625 20.5421 18.2827C19.987 18.3009 19.572 17.9549 19.6823 17.4146C20.1453 15.1219 18.7864 13.5394 17.6599 11.8558C17.5116 11.6332 17.3734 11.4025 17.217 11.184C16.8662 10.6882 16.5555 10.1742 17.2491 9.73106C17.9405 9.29195 18.2713 9.8282 18.598 10.3159C19.2273 11.2589 19.8587 12.2059 20.5361 13.2238Z" fill="#B9C5E1"/>
<path d="M69.1979 12.9664C69.9255 11.8899 70.5849 10.9267 71.2323 9.95332C71.5671 9.45147 71.9779 9.12972 72.5652 9.49801C73.2326 9.91689 72.9039 10.4005 72.5812 10.8639C72.2164 11.386 71.8937 11.9445 71.4908 12.4342C70.3945 13.7718 69.6469 15.2045 69.9616 17.0237C70.0538 17.5559 69.8233 17.9768 69.236 18.0173C68.6828 18.0537 68.2559 17.7421 68.3642 17.1795C68.7991 14.9333 67.5283 13.3489 66.3879 11.6997C66.1594 11.3678 65.949 11.0238 65.7265 10.6879C65.4218 10.2245 65.4158 9.79548 65.9069 9.46766C66.414 9.12972 66.7988 9.37053 67.0914 9.8056C67.7849 10.8295 68.4623 11.8616 69.1979 12.9664Z" fill="#B9C5E1"/>
<path d="M35.4363 14.5514C35.4363 13.6772 35.3942 12.799 35.4504 11.9288C35.4924 11.2752 35.2419 11.1052 34.6486 11.1599C34.1856 11.2024 33.7166 11.172 33.2496 11.1579C32.7846 11.1437 32.496 10.9049 32.4639 10.4213C32.4339 9.93764 32.7064 9.59565 33.1514 9.58958C35.1838 9.5572 37.2181 9.55923 39.2505 9.5916C39.7015 9.5997 39.956 9.9518 39.926 10.4314C39.8979 10.8563 39.6694 11.1113 39.2344 11.1477C39.1343 11.1558 39.034 11.1599 38.9358 11.166C37.0718 11.2712 37.0718 11.2712 37.0718 13.143C37.0718 14.4887 37.0598 15.8343 37.0778 17.18C37.0858 17.7952 36.9335 18.2909 36.2401 18.295C35.5225 18.2991 35.4222 17.7709 35.4343 17.1719C35.4504 16.3018 35.4363 15.4256 35.4363 14.5514Z" fill="#B9C5E1"/>
</g>
</g>
</g>
<defs>
<clipPath id="clip0_1_6873">
<rect width="73" height="29" fill="white" transform="translate(0.869873 0.184448)"/>
</clipPath>
<clipPath id="clip1_1_6873">
<rect width="83.212" height="20.803" fill="white" transform="translate(0.609375 4.16235)"/>
</clipPath>
<clipPath id="clip2_1_6873">
<rect width="72.8105" height="9.70806" fill="white" transform="translate(0.609375 9.30835)"/>
</clipPath>
</defs>
</svg>
