<svg width="35" height="42" viewBox="0 0 35 42" fill="none" xmlns="http://www.w3.org/2000/svg">
<path fill-rule="evenodd" clip-rule="evenodd" d="M32.5 32.8023C32.5 34.4532 31.1836 36.0277 28.2569 37.2708C25.399 38.4848 21.4807 39.1429 17.5 39.1429C13.5193 39.1429 9.60099 38.4848 6.74306 37.2708C3.81645 36.0277 2.5 34.4532 2.5 32.8023V9.05486C2.5 7.40398 3.81645 5.8295 6.74306 4.58632C9.60099 3.37232 13.5193 2.71429 17.5 2.71429C21.4807 2.71429 25.399 3.37232 28.2569 4.58632C31.1836 5.8295 32.5 7.40398 32.5 9.05486V32.8023ZM5.79874 28.9091L3.37416 27.656L3.34953 27.6699V32.8023L3.85285 34.2552L4.82465 35.2324C4.82465 35.2324 6.55495 36.768 7.73432 36.768C10.1074 37.6658 13.4421 38.3355 17.5 38.3355C21.5579 38.3355 24.8926 37.6658 27.2657 36.768C28.445 36.768 30.1754 35.2324 30.1754 35.2324L31.1472 34.2552L31.6505 32.8023V27.6699L31.6258 27.656L29.2013 28.9091C26.3189 30.3988 21.9657 31.2271 17.5 31.2271C13.0343 31.2271 8.68106 30.3988 5.79874 28.9091ZM5.79874 13.0775L3.37416 11.8244L3.34953 11.8383V16.9707L3.85285 18.4236L4.82465 19.4007C4.82465 19.4007 6.55495 20.9364 7.73432 20.9364C10.1074 21.8342 13.4421 22.5038 17.5 22.5038C21.5579 22.5038 24.8926 21.8342 27.2657 20.9364C28.445 20.9364 30.1754 19.4007 30.1754 19.4007L31.1472 18.4236L31.6505 16.9707V11.8383L31.6258 11.8244L29.2013 13.0775C26.3189 14.5672 21.9657 15.3954 17.5 15.3954C13.0343 15.3954 8.68106 14.5672 5.79874 13.0775ZM5.79874 20.9933L3.37416 19.7402L3.34953 19.7541V24.8865L3.85285 26.3394L4.82465 27.3166C4.82465 27.3166 6.55495 28.8522 7.73432 28.8522C10.1074 29.75 13.4421 30.4196 17.5 30.4196C21.5579 30.4196 24.8926 29.75 27.2657 28.8522C28.445 28.8522 30.1754 27.3166 30.1754 27.3166L31.1472 26.3394L31.6505 24.8865V19.7541L31.6258 19.7402L29.2013 20.9933C26.3189 22.483 21.9657 23.3112 17.5 23.3112C13.0343 23.3112 8.68106 22.483 5.79874 20.9933ZM31.6505 9.05486L31.1472 7.60193L30.1754 6.62479C30.1754 6.62479 28.445 5.08916 27.2657 5.08916C24.8926 4.19138 21.5579 3.52171 17.5 3.52171C13.4421 3.52171 10.1074 4.19138 7.73432 5.08916C6.55495 5.08916 4.82465 6.62479 4.82465 6.62479L3.85285 7.60193L3.34953 9.05486L3.85285 10.5078L4.82465 11.4849C4.82465 11.4849 6.55495 13.0206 7.73432 13.0206C10.1074 13.9183 13.4421 14.588 17.5 14.588C21.5579 14.588 24.8926 13.9183 27.2657 13.0206C28.445 13.0206 30.1754 11.4849 30.1754 11.4849L31.1472 10.5078L31.6505 9.05486Z" stroke="#B9C5E1" stroke-width="4" stroke-linecap="round" stroke-linejoin="round"/>
</svg>
