<svg width="41" height="33" viewBox="0 0 41 33" fill="none" xmlns="http://www.w3.org/2000/svg">
<path fill-rule="evenodd" clip-rule="evenodd" d="M9.36668 0.857117C4.58807 0.857117 0.714233 4.73094 0.714233 9.50956V33H32.0329C36.8115 33 40.6854 29.1261 40.6854 24.3475V9.50956C40.6854 4.73095 36.8115 0.857117 32.0329 0.857117H9.36668ZM9.59651 13.3571C9.59651 12.3709 10.396 11.5714 11.3822 11.5714H30.017C31.0032 11.5714 31.8027 12.3709 31.8027 13.3571C31.8027 14.3433 31.0032 15.1428 30.017 15.1428H11.3822C10.396 15.1428 9.59651 14.3433 9.59651 13.3571ZM9.59649 20.5003C9.59649 19.5141 10.396 18.7146 11.3822 18.7146H24.4654C25.4516 18.7146 26.2511 19.5141 26.2511 20.5003C26.2511 21.4865 25.4516 22.286 24.4654 22.286H11.3822C10.396 22.286 9.59649 21.4865 9.59649 20.5003Z" fill="#B9C5E1"/>
</svg>
